<svg version="1.1" id="Layer_1" xmlns="http://www.w3.org/2000/svg" xmlns:xlink="http://www.w3.org/1999/xlink" x="0px" y="0px"
	 width="100%" viewBox="0 0 264 191" enable-background="new 0 0 264 191" xml:space="preserve">
<path fill="#1BBCEE" opacity="1.000000" stroke="none" 
	d="
M265.000000,37.000000 
	C265.000000,37.750000 265.000000,38.500000 264.733398,39.945801 
	C264.311646,42.617157 264.022003,44.592636 264.020966,46.568272 
	C263.995392,95.045509 264.000458,143.522751 264.000000,192.000000 
	C188.312439,192.000000 112.624878,192.000000 36.318199,191.660309 
	C17.570005,186.936798 6.129499,175.875153 1.933241,157.550140 
	C1.805315,156.991486 1.319146,156.514862 0.999999,156.000000 
	C1.000000,155.250000 1.000000,154.500000 1.239678,153.036514 
	C1.652643,150.183487 1.975912,148.044037 1.977193,145.904388 
	C2.006125,97.602943 1.999740,49.301468 2.000000,1.000000 
	C77.020897,1.000000 152.041794,1.000000 227.676056,1.292777 
	C228.749237,1.759172 229.195755,2.023628 229.670822,2.093263 
	C245.893219,4.471255 256.163025,14.076231 262.128052,28.864389 
	C263.202820,31.528877 264.048523,34.285774 265.000000,37.000000 
M210.050217,73.031738 
	C209.491409,73.052231 208.932587,73.072723 207.751862,72.924141 
	C207.065384,72.455292 206.384933,71.977325 205.691513,71.518967 
	C197.482880,66.093033 187.476501,64.592125 179.292923,67.663658 
	C162.744522,73.874741 153.287415,85.326454 155.371216,107.536217 
	C157.248230,127.542023 169.440994,135.127884 183.047241,139.207748 
	C191.495880,141.741074 198.611755,137.928802 205.531143,134.240372 
	C208.874222,132.458313 210.573502,131.457550 212.896713,135.507996 
	C214.247253,137.862671 216.762177,141.252518 220.397095,139.382584 
	C223.952942,137.553314 226.635788,134.712265 226.618332,130.003616 
	C226.517593,102.845070 226.625397,75.685722 226.517136,48.527233 
	C226.494186,42.768501 223.296204,39.586697 218.510361,39.747025 
	C213.752686,39.906403 211.136597,43.164566 211.082779,49.033279 
	C211.009476,57.026371 210.951920,65.019608 210.050217,73.031738 
M83.973953,134.443359 
	C89.261536,141.882004 93.420685,141.871063 98.402710,132.885971 
	C98.561218,132.600082 98.735756,132.323074 99.384102,131.357361 
	C99.588211,120.649933 99.832451,109.942932 99.947914,99.234543 
	C99.963104,97.824936 99.319954,96.408234 98.827988,94.322975 
	C98.912994,93.875214 98.998001,93.427444 99.247284,92.766823 
	C99.379601,92.515800 99.349518,92.272469 99.132576,91.324776 
	C100.554108,83.702904 110.206924,80.268715 115.455452,81.049652 
	C122.359436,82.076904 125.969551,86.582794 126.679657,95.268250 
	C126.585732,95.528862 126.645943,95.762634 127.008766,96.900368 
	C127.021263,108.210831 127.096764,119.521744 127.016457,130.831543 
	C126.982483,135.616104 130.145599,138.579239 133.761841,139.473892 
	C135.787491,139.975021 138.784653,136.807144 141.237915,135.136536 
	C141.833694,134.730835 142.010498,133.709869 143.015182,132.391876 
	C143.338455,131.315979 143.936508,130.241699 143.942841,129.163940 
	C144.011581,117.443169 144.037567,105.721352 143.919510,94.001396 
	C143.906189,92.679924 142.936996,91.368088 142.131546,89.378052 
	C140.821198,80.269165 136.968552,72.663422 128.055176,69.113480 
	C115.135223,63.967846 103.684647,67.320641 93.732216,76.711243 
	C88.866600,70.471687 82.790291,67.330933 75.153488,66.921173 
	C67.739319,66.523354 61.107315,68.573395 55.117466,72.730629 
	C49.540310,64.721451 44.143509,64.751907 38.859280,73.324066 
	C38.579071,74.433601 38.058105,75.542397 38.054668,76.652794 
	C38.000675,94.093430 37.979107,111.534470 38.078659,128.974686 
	C38.086254,130.305222 39.059719,131.630249 39.916618,133.503860 
	C42.730659,135.615875 45.881027,139.775391 48.283325,139.380783 
	C52.323223,138.717194 55.275433,134.783112 54.906532,129.738403 
	C54.798126,128.255951 54.884773,126.758675 54.894402,125.268265 
	C54.959652,115.171181 55.028221,105.074120 55.256622,94.762482 
	C55.381931,94.509193 55.346302,94.266869 55.066368,93.290054 
	C57.141590,83.517937 62.004574,81.439262 71.657249,81.113983 
	C77.197739,80.927277 81.536293,85.867134 82.697830,93.272552 
	C82.614899,93.538956 82.684128,93.773956 83.113800,94.897758 
	C83.122772,107.583015 83.131752,120.268280 83.047310,133.250854 
	C83.079491,133.575470 83.263855,133.799744 83.973953,134.443359 
z"/>
<path fill="#FBFEFF" opacity="1.000000" stroke="none" 
	d="
M265.000000,36.531342 
	C264.048523,34.285774 263.202820,31.528877 262.128052,28.864389 
	C256.163025,14.076231 245.893219,4.471255 229.670822,2.093263 
	C229.195755,2.023628 228.749237,1.759172 228.144714,1.292777 
	C240.258942,1.000000 252.517883,1.000000 265.000000,1.000000 
	C265.000000,12.686615 265.000000,24.374649 265.000000,36.531342 
z"/>
<path fill="#FBFEFF" opacity="1.000000" stroke="none" 
	d="
M0.999999,156.468658 
	C1.319146,156.514862 1.805315,156.991486 1.933241,157.550140 
	C6.129499,175.875153 17.570005,186.936798 35.849541,191.660309 
	C24.405703,192.000000 12.811404,192.000000 1.000000,192.000000 
	C1.000000,180.313339 1.000000,168.625320 0.999999,156.468658 
z"/>
<path fill="#37C3EF" opacity="1.000000" stroke="none" 
	d="
M1.500000,1.000000 
	C1.999740,49.301468 2.006125,97.602943 1.977193,145.904388 
	C1.975912,148.044037 1.652643,150.183487 1.239678,152.661514 
	C1.000000,102.333336 1.000000,51.666668 1.500000,1.000000 
z"/>
<path fill="#4CC7F1" opacity="1.000000" stroke="none" 
	d="
M264.500000,192.000000 
	C264.000458,143.522751 263.995392,95.045509 264.020966,46.568272 
	C264.022003,44.592636 264.311646,42.617157 264.733398,40.320801 
	C265.000000,90.666664 265.000000,141.333328 264.500000,192.000000 
z"/>
<path fill="#FAFDFF" opacity="1.000000" stroke="none" 
	d="
M82.828178,93.040314 
	C81.536293,85.867134 77.197739,80.927277 71.657249,81.113983 
	C62.004574,81.439262 57.141590,83.517937 55.038445,93.894943 
	C55.010521,94.499832 55.095715,94.977051 55.095715,94.977051 
	C55.028221,105.074120 54.959652,115.171181 54.894402,125.268265 
	C54.884773,126.758675 54.798126,128.255951 54.906532,129.738403 
	C55.275433,134.783112 52.323223,138.717194 48.283325,139.380783 
	C45.881027,139.775391 42.730659,135.615875 39.697834,132.764954 
	C39.430122,112.191849 39.381195,92.357643 39.332264,72.523445 
	C44.143509,64.751907 49.540310,64.721451 55.117466,72.730629 
	C61.107315,68.573395 67.739319,66.523354 75.153488,66.921173 
	C82.790291,67.330933 88.866600,70.471687 93.732216,76.711243 
	C103.684647,67.320641 115.135223,63.967846 128.055176,69.113480 
	C136.968552,72.663422 140.821198,80.269165 142.255753,90.181938 
	C142.379959,104.981155 142.379959,118.976486 142.379959,132.971817 
	C142.010498,133.709869 141.833694,134.730835 141.237915,135.136536 
	C138.784653,136.807144 135.787491,139.975021 133.761841,139.473892 
	C130.145599,138.579239 126.982483,135.616104 127.016457,130.831543 
	C127.096764,119.521744 127.021263,108.210831 126.974701,96.200607 
	C126.940643,95.500847 126.814857,95.042274 126.814857,95.042274 
	C125.969551,86.582794 122.359436,82.076904 115.455452,81.049652 
	C110.206924,80.268715 100.554108,83.702904 99.077484,91.912682 
	C99.022385,92.500587 99.083008,92.979683 99.083008,92.979683 
	C98.998001,93.427444 98.912994,93.875214 98.824799,95.121964 
	C98.848679,107.961281 98.875748,120.001602 98.902817,132.041931 
	C98.735756,132.323074 98.561218,132.600082 98.402710,132.885971 
	C93.420685,141.871063 89.261536,141.882004 83.721725,133.917389 
	C83.359909,133.245453 83.250320,133.099487 83.140732,132.953537 
	C83.131752,120.268280 83.122772,107.583015 83.043015,94.198990 
	C82.972237,93.500229 82.828178,93.040314 82.828178,93.040314 
z"/>
<path fill="#F9FDFF" opacity="1.000000" stroke="none" 
	d="
M210.887604,73.012779 
	C210.951920,65.019608 211.009476,57.026371 211.082779,49.033279 
	C211.136597,43.164566 213.752686,39.906403 218.510361,39.747025 
	C223.296204,39.586697 226.494186,42.768501 226.517136,48.527233 
	C226.625397,75.685722 226.517593,102.845070 226.618332,130.003616 
	C226.635788,134.712265 223.952942,137.553314 220.397095,139.382584 
	C216.762177,141.252518 214.247253,137.862671 212.896713,135.507996 
	C210.573502,131.457550 208.874222,132.458313 205.531143,134.240372 
	C198.611755,137.928802 191.495880,141.741074 183.047241,139.207748 
	C169.440994,135.127884 157.248230,127.542023 155.371216,107.536217 
	C153.287415,85.326454 162.744522,73.874741 179.292923,67.663658 
	C187.476501,64.592125 197.482880,66.093033 205.691513,71.518967 
	C206.384933,71.977325 207.065384,72.455292 208.266418,73.304672 
	C209.393539,74.054771 210.006119,74.424355 210.618713,74.793930 
	C210.708328,74.200211 210.797958,73.606491 210.887604,73.012779 
M178.877487,120.767342 
	C188.367432,127.518791 204.995499,124.636574 209.077621,113.639404 
	C212.062424,105.598343 212.354279,97.633781 207.889404,90.165001 
	C203.945923,83.568405 198.206772,80.867165 190.027603,81.658981 
	C182.292603,82.407799 176.108734,85.293015 172.829422,92.478836 
	C168.500244,101.965172 170.659241,112.938179 178.877487,120.767342 
z"/>
<path fill="#00BAED" opacity="1.000000" stroke="none" 
	d="
M39.095772,72.923752 
	C39.381195,92.357643 39.430122,112.191849 39.531639,132.491943 
	C39.059719,131.630249 38.086254,130.305222 38.078659,128.974686 
	C37.979107,111.534470 38.000675,94.093430 38.054668,76.652794 
	C38.058105,75.542397 38.579071,74.433601 39.095772,72.923752 
z"/>
<path fill="#00BAED" opacity="1.000000" stroke="none" 
	d="
M142.697571,132.681854 
	C142.379959,118.976486 142.379959,104.981155 142.395508,90.518799 
	C142.936996,91.368088 143.906189,92.679924 143.919510,94.001396 
	C144.037567,105.721352 144.011581,117.443169 143.942841,129.163940 
	C143.936508,130.241699 143.338455,131.315979 142.697571,132.681854 
z"/>
<path fill="#00BAED" opacity="1.000000" stroke="none" 
	d="
M99.143463,131.699646 
	C98.875748,120.001602 98.848679,107.961281 98.901657,95.457886 
	C99.319954,96.408234 99.963104,97.824936 99.947914,99.234543 
	C99.832451,109.942932 99.588211,120.649933 99.143463,131.699646 
z"/>
<path fill="#00BAED" opacity="1.000000" stroke="none" 
	d="
M210.468903,73.022263 
	C210.797958,73.606491 210.708328,74.200211 210.618713,74.793930 
	C210.006119,74.424355 209.393539,74.054771 208.577362,73.389206 
	C208.932587,73.072723 209.491409,73.052231 210.468903,73.022263 
z"/>
<path fill="#00BAED" opacity="1.000000" stroke="none" 
	d="
M99.165146,92.873253 
	C99.083008,92.979683 99.022385,92.500587 99.089706,92.268707 
	C99.349518,92.272469 99.379601,92.515800 99.165146,92.873253 
z"/>
<path fill="#00B8ED" opacity="1.000000" stroke="none" 
	d="
M82.763000,93.156433 
	C82.828178,93.040314 82.972237,93.500229 82.938873,93.738892 
	C82.684128,93.773956 82.614899,93.538956 82.763000,93.156433 
z"/>
<path fill="#00B8ED" opacity="1.000000" stroke="none" 
	d="
M55.176170,94.869766 
	C55.095715,94.977051 55.010521,94.499832 55.080132,94.267662 
	C55.346302,94.266869 55.381931,94.509193 55.176170,94.869766 
z"/>
<path fill="#00B8ED" opacity="1.000000" stroke="none" 
	d="
M126.747253,95.155258 
	C126.814857,95.042274 126.940643,95.500847 126.900475,95.735199 
	C126.645943,95.762634 126.585732,95.528862 126.747253,95.155258 
z"/>
<path fill="#00B8ED" opacity="1.000000" stroke="none" 
	d="
M83.094025,133.102203 
	C83.250320,133.099487 83.359909,133.245453 83.534943,133.657532 
	C83.263855,133.799744 83.079491,133.575470 83.094025,133.102203 
z"/>
<path fill="#1CBCEE" opacity="1.000000" stroke="none" 
	d="
M178.590134,120.532288 
	C170.659241,112.938179 168.500244,101.965172 172.829422,92.478836 
	C176.108734,85.293015 182.292603,82.407799 190.027603,81.658981 
	C198.206772,80.867165 203.945923,83.568405 207.889404,90.165001 
	C212.354279,97.633781 212.062424,105.598343 209.077621,113.639404 
	C204.995499,124.636574 188.367432,127.518791 178.590134,120.532288 
z"/>
</svg>